<?xml version="1.0" encoding="utf-8"?>
<!-- Generator: Adobe Illustrator 15.0.2, SVG Export Plug-In . SVG Version: 6.00 Build 0)  -->
<!DOCTYPE svg PUBLIC "-//W3C//DTD SVG 1.1//EN" "http://www.w3.org/Graphics/SVG/1.1/DTD/svg11.dtd">
<svg version="1.1" id="Layer_1" xmlns="http://www.w3.org/2000/svg" xmlns:xlink="http://www.w3.org/1999/xlink" x="0px" y="0px"
	 width="100px" height="100px" viewBox="0 0 100 100" enable-background="new 0 0 100 100" xml:space="preserve">
<g>
	<ellipse fill="#425EBA" cx="51.03" cy="46.872" rx="43.563" ry="43.681"/>
	<path fill="#89C75A" d="M95.78,46.307c-0.015-1.34-0.083-2.675-0.211-3.99c-0.425-4.382-1.467-8.577-3.033-12.514
		c-0.117-0.293-0.225-0.589-0.348-0.883c-2.084-4.937-5.011-9.431-8.594-13.313c-0.234-0.256-0.475-0.506-0.714-0.75
		c-0.681-0.707-1.37-1.395-2.095-2.053C72.644,5.367,61.819,0.828,49.961,0.828c-11.964,0-22.862,4.622-31.035,12.175
		c-1.898,1.758-3.651,3.68-5.235,5.736c-5.986,7.764-9.563,17.488-9.563,28.044c0,24.879,19.818,45.184,44.447,45.924v2.67h-3.898
		v1.547H29.784V100h40.35v-3.076H58.056v-1.547H54.15v-2.836c15.987-1.457,29.626-11.188,36.619-24.879
		c1.62-3.18,2.888-6.57,3.738-10.123c0.216-0.898,0.406-1.801,0.563-2.723c0.466-2.607,0.72-5.291,0.72-8.034
		C95.79,46.625,95.78,46.469,95.78,46.307L95.78,46.307z M87.153,27.945l0.269-0.301c0.347,0.679,0.675,1.37,0.983,2.067
		L87.97,29.69l-0.816,0.119V27.945z M80.532,19.921l0.005-2.052c0.724,0.767,1.413,1.552,2.079,2.371l-0.827,1.23l-2.888-0.023
		l-0.18-0.604L80.532,19.921z M25.243,14.823v-0.078h0.921l0.077-0.314h1.504v0.656l-0.432,0.58h-2.07V14.823z M27.71,17.635
		l-2.07,0.127l-0.396-0.471l1.469-0.423c0,0,0.92-0.157,0.998-0.157C27.789,16.711,27.71,17.635,27.71,17.635L27.71,17.635z
		 M90.069,35.114h-3.352l-2.041-1.526l-2.152,0.211v1.315h-0.682l-0.733-0.525l-3.724-0.947v-2.419l-4.719,0.368l-1.462,0.79h-1.874
		l-0.922-0.093l-2.274,1.266v2.385l-4.653,3.361l0.387,1.438h0.943l-0.249,1.369l-0.661,0.245l-0.033,3.578l4.018,4.588h1.752
		l0.102-0.28h3.147l0.905-0.844h1.787l0.979,0.981l2.652,0.28l-0.348,3.542l2.95,5.227l-1.556,2.975l0.107,1.402l1.223,1.221v3.371
		l1.605,2.17v2.801h1.39c-7.722,9.506-19.477,15.596-32.621,15.596c-23.196,0-42.06-18.92-42.06-42.176
		c0-5.854,1.199-11.434,3.355-16.508v2.405l1.748,0.839v3.336l1.678,2.866l1.361,0.212l0.176-0.982l-1.609-2.487l-0.313-2.42h0.943
		l0.396,2.489l2.324,3.4l-0.603,1.099l1.479,2.267l3.67,0.908v-0.595l1.469,0.211l-0.143,1.051l1.155,0.211l1.781,0.486l2.521,2.875
		l3.21,0.24l0.317,2.63l-2.2,1.541l-0.105,2.352l-0.316,1.438l3.186,3.994l0.24,1.363c0,0,1.154,0.318,1.297,0.318
		c0.141,0,2.589,1.855,2.589,1.855V71.4l0.87,0.242l-0.592,3.33l1.469,1.963l-0.275,3.303l1.943,3.42l2.49,2.18l2.5,0.049
		l0.246-0.809l-1.84-1.557l0.107-0.77l0.328-0.943l0.072-0.967l-1.247-0.033l-0.626-0.791l1.031-1l0.144-0.752l-1.155-0.328
		l0.068-0.697l1.644-0.25l2.497-1.201l0.841-1.547l2.624-3.365l-0.599-2.631l0.808-1.404l2.408,0.074l1.625-1.285l0.523-5.08
		l1.801-2.289l0.313-1.479l-1.64-0.525l-1.082-1.781l-3.704-0.039l-2.941-1.119l-0.137-2.105L47.045,49.5l-2.657-0.037l-1.536-2.421
		l-1.361-0.667l-0.072,0.736l-2.481,0.147l-0.906-1.267l-2.588-0.529l-2.134,2.478l-3.353-0.569l-0.244-3.793l-2.447-0.418
		l0.979-1.858l-0.279-1.071l-3.219,2.154l-2.026-0.244l-0.72-1.586l0.441-1.633l1.115-2.067l2.57-1.301l4.961-0.005l-0.015,1.517
		l1.787,0.835l-0.144-2.596l1.283-1.296l2.594-1.708l0.182-1.202l2.582-2.698l2.75-1.531l-0.238-0.201l1.858-1.756l0.685,0.181
		l0.309,0.394l0.71-0.785l0.171-0.079l-0.773-0.108l-0.787-0.266v-0.754l0.42-0.34h0.916l0.422,0.188l0.361,0.73l0.445-0.064v-0.063
		l0.127,0.043l1.292-0.201l0.181-0.633l0.738,0.188v0.688L48.259,24.5h0.004l0.099,0.745l2.339,0.726l0.005,0.025l0.534-0.045
		l0.039-1.016l-1.855-0.844l-0.103-0.484l1.536-0.525l0.064-1.479l-1.605-0.976l-0.104-2.489l-2.202,1.084h-0.806l0.214-1.893
		l-3-0.707l-1.237,0.942v2.86l-2.231,0.713l-0.896,1.869l-0.971,0.152v-2.385l-2.092-0.296l-1.048-0.683l-0.421-1.55l3.748-2.198
		l1.836-0.559l0.186,1.236l1.018-0.055l0.078-0.623l1.072-0.152l0.019-0.221l-0.46-0.19l-0.107-0.659l1.316-0.107l0.793-0.828
		l0.044-0.061h0.011l0.238-0.244l2.761-0.354l1.224,1.041l-3.201,1.712l4.077,0.962l0.523-1.364h1.781l0.631-1.192l-1.262-0.313
		V12.57l-3.948-1.757l-2.723,0.32l-1.541,0.805l0.107,1.962l-1.61-0.244l-0.249-1.089l1.541-1.4l-2.793-0.142l-0.804,0.245
		l-0.353,0.942l1.048,0.182l-0.205,1.05l-1.781,0.104l-0.28,0.701l-2.583,0.074c0,0-0.073-1.473-0.177-1.473
		c-0.103,0,2.025-0.033,2.025-0.033l1.543-1.512l-0.842-0.422l-1.116,1.088l-1.859-0.103l-1.116-1.546h-2.378l-2.481,1.859h2.275
		l0.206,0.668l-0.587,0.551l2.516,0.066l0.387,0.914l-2.834-0.107l-0.141-0.703l-1.781-0.381l-0.94-0.525l-2.125,0.014
		c6.944-5.068,15.479-8.071,24.709-8.071c10.638,0,20.353,3.983,27.771,10.534l-0.504,0.898l-1.938,0.762l-0.817,0.893l0.186,1.035
		l1.003,0.143l0.607,1.511l1.723-0.696l0.29,2.021h-0.524l-1.415-0.211l-1.571,0.266l-1.521,2.154l-2.173,0.343l-0.317,1.868
		l0.92,0.217l-0.265,1.202l-2.163-0.437l-1.982,0.437l-0.422,1.104l0.344,2.321l1.166,0.544l1.952-0.009l1.312-0.118l0.406-1.055
		l2.06-2.68l1.351,0.275l1.336-1.207l0.25,0.941l3.283,2.224l-0.4,0.54l-1.483-0.079l0.572,0.81l0.905,0.201l1.067-0.447
		l-0.021-1.289l0.475-0.242l-0.381-0.402l-2.188-1.227l-0.577-1.625h1.815l0.582,0.58l1.57,1.354l0.064,1.641l1.625,1.732
		l0.606-2.377l1.125-0.617l0.21,1.948l1.102,1.207l2.192-0.038c0.426,1.094,0.808,2.207,1.14,3.346L90.069,35.114z M29.124,21.708
		l1.102-0.525l0.993,0.24l-0.342,1.34l-1.072,0.344L29.124,21.708z M34.968,24.864v0.867h-2.516l-0.939-0.265l0.234-0.603
		l1.209-0.502h1.649v0.502H34.968z M36.122,26.071v0.842l-0.626,0.409l-0.783,0.142v-1.393H36.122z M35.419,25.731v-1l0.865,0.789
		L35.419,25.731z M35.81,27.752v0.82l-0.602,0.604h-1.337l0.21-0.917l0.632-0.054l0.134-0.32L35.81,27.752z M32.481,26.071h1.384
		l-1.776,2.496l-0.738-0.393l0.162-1.05L32.481,26.071z M38.167,27.463v0.819h-1.336l-0.361-0.53v-0.76h0.102L38.167,27.463z
		 M36.935,26.339l0.382-0.397l0.646,0.397l-0.513,0.427L36.935,26.339z M36.935,26.339"/>
</g>
<rect x="29.784" y="96.924" fill="#A97C50" width="40.35" height="3.076"/>
<rect x="44.677" y="95.377" fill="#A97C50" width="13.451" height="2.373"/>
<polygon fill="#A97C50" points="54.128,96.564 48.575,96.564 48.575,92.707 54.128,91.707 "/>
<line fill="#C49A6C" x1="48.698" y1="92.707" x2="54.288" y2="92.541"/>
<path fill="#E2E2E2" d="M54.15,92.541c15.987-1.457,29.626-11.188,36.619-24.879c1.62-3.18,2.888-6.57,3.738-10.123
	c0.216-0.898,0.406-1.801,0.563-2.723c0.466-2.607,0.72-5.291,0.72-8.034c0-0.157-0.01-0.313-0.01-0.476
	c-0.015-1.34-0.083-2.675-0.211-3.99c-0.425-4.382-1.467-8.577-3.033-12.514c-0.117-0.293-0.225-0.589-0.348-0.883
	c-2.084-4.937-5.011-9.431-8.594-13.313c-0.234-0.256-0.475-0.506-0.714-0.75c-0.681-0.707-1.37-1.395-2.095-2.053
	C72.644,5.367,61.819,0.828,49.961,0.828c-11.964,0-22.862,4.622-31.035,12.175c-1.898,1.758-3.651,3.68-5.235,5.736
	c-5.986,7.764-9.563,17.488-9.563,28.044c0,24.879,19.818,45.184,44.447,45.924 M77.993,78.18c-0.215,0.193-0.437,0.379-0.656,0.568
	c-0.254,0.217-0.508,0.436-0.768,0.646c-0.445,0.367-0.898,0.721-1.357,1.068c-0.003,0.002-0.006,0.004-0.008,0.006
	c-7.039,5.318-15.775,8.49-25.243,8.49c-18.856,0-34.849-12.504-40.173-29.676c-1.24-3.971-1.91-8.193-1.91-12.574
	c0-23.265,18.86-42.125,42.125-42.125c23.266,0,42.125,18.86,42.125,42.125C92.128,59.227,86.662,70.465,77.993,78.18z"/>
</svg>
